<svg width="44" height="43" viewBox="0 0 44 43" fill="none" xmlns="http://www.w3.org/2000/svg">
<path d="M5.49933 30.7232C5.49933 32.3719 6.15426 33.953 7.32004 35.1188C8.48582 36.2845 10.067 36.9395 11.7156 36.9395C11.7156 38.3133 12.2614 39.631 13.2329 40.6024C14.2043 41.5739 15.522 42.1197 16.8958 42.1197C18.2697 42.1197 19.5873 41.5739 20.5588 40.6024C21.5303 39.631 22.0761 38.3133 22.0761 36.9395C22.0761 38.3133 22.6218 39.631 23.5933 40.6024C24.5648 41.5739 25.8824 42.1197 27.2563 42.1197C28.6302 42.1197 29.9478 41.5739 30.9193 40.6024C31.8908 39.631 32.4365 38.3133 32.4365 36.9395C33.5386 36.9396 34.6208 36.6467 35.5724 36.0908C36.524 35.535 37.3107 34.7361 37.852 33.7762C38.3932 32.8162 38.6695 31.7296 38.6526 30.6276C38.6357 29.5257 38.3261 28.4481 37.7556 27.5052C39.1739 27.2312 40.4525 26.4719 41.3719 25.3578C42.2913 24.2437 42.7942 22.8443 42.7942 21.3998C42.7942 19.9553 42.2913 18.5559 41.3719 17.4418C40.4525 16.3277 39.1739 15.5684 37.7556 15.2944C38.3266 14.3515 38.6366 13.2736 38.6538 12.1714C38.671 11.0692 38.3948 9.98221 37.8535 9.02191C37.3122 8.06161 36.5253 7.26252 35.5734 6.70656C34.6215 6.1506 33.5389 5.85777 32.4365 5.85809C32.4365 4.4842 31.8908 3.16659 30.9193 2.19511C29.9478 1.22363 28.6302 0.677856 27.2563 0.677856C25.8824 0.677856 24.5648 1.22363 23.5933 2.19511C22.6218 3.16659 22.0761 4.4842 22.0761 5.85809C22.0761 4.4842 21.5303 3.16659 20.5588 2.19511C19.5873 1.22363 18.2697 0.677856 16.8958 0.677856C15.522 0.677856 14.2043 1.22363 13.2329 2.19511C12.2614 3.16659 11.7156 4.4842 11.7156 5.85809C10.6136 5.85799 9.5313 6.15088 8.57971 6.70673C7.62811 7.26258 6.84139 8.06142 6.30015 9.0214C5.75891 9.98138 5.48261 11.068 5.49954 12.1699C5.51648 13.2718 5.82606 14.3494 6.39655 15.2923C4.97829 15.5664 3.69967 16.3256 2.78023 17.4397C1.8608 18.5538 1.35791 19.9532 1.35791 21.3977C1.35791 22.8422 1.8608 24.2417 2.78023 25.3558C3.69967 26.4699 4.97829 27.2291 6.39655 27.5032C5.80909 28.4745 5.4988 29.5881 5.49933 30.7232Z" stroke="url(#paint0_linear_188_21)" stroke-width="1.22287" stroke-linecap="round" stroke-linejoin="round"/>
<path d="M12.7515 26.579L16.5683 15.1286C16.6641 14.8428 16.8472 14.5944 17.0919 14.4184C17.3365 14.2424 17.6303 14.1477 17.9317 14.1477C18.2331 14.1477 18.5268 14.2424 18.7715 14.4184C19.0162 14.5944 19.1993 14.8428 19.2951 15.1286L23.1119 26.579M29.3282 14.1464V26.579M14.8236 22.4348H21.0398" stroke="url(#paint1_linear_188_21)" stroke-width="1.22287" stroke-linecap="round" stroke-linejoin="round"/>
<defs>
<linearGradient id="paint0_linear_188_21" x1="22.0761" y1="0.677856" x2="22.0761" y2="42.1197" gradientUnits="userSpaceOnUse">
<stop offset="0.84" stop-color="white"/>
<stop offset="1" stop-color="#505050"/>
</linearGradient>
<linearGradient id="paint1_linear_188_21" x1="21.0398" y1="14.1464" x2="21.0398" y2="26.579" gradientUnits="userSpaceOnUse">
<stop offset="0.84" stop-color="white"/>
<stop offset="1" stop-color="#505050"/>
</linearGradient>
</defs>
</svg>
