<svg width="44" height="44" viewBox="0 0 44 44" fill="none" xmlns="http://www.w3.org/2000/svg">
<path d="M21.9998 6.60002C20.8329 6.60002 19.7137 7.06359 18.8886 7.88875C18.0634 8.71391 17.5998 9.83307 17.5998 11C17.5998 12.167 18.0634 13.2861 18.8886 14.1113C19.7137 14.9365 20.8329 15.4 21.9998 15.4C23.1668 15.4 24.2859 14.9365 25.1111 14.1113C25.9363 13.2861 26.3998 12.167 26.3998 11C26.3998 9.83307 25.9363 8.71391 25.1111 7.88875C24.2859 7.06359 23.1668 6.60002 21.9998 6.60002ZM15.3998 11C15.3998 9.2496 16.0952 7.57086 17.3329 6.33312C18.5707 5.09538 20.2494 4.40002 21.9998 4.40002C23.7503 4.40002 25.429 5.09538 26.6667 6.33312C27.9045 7.57086 28.5998 9.2496 28.5998 11C28.5998 12.7505 27.9045 14.4292 26.6667 15.6669C25.429 16.9047 23.7503 17.6 21.9998 17.6C20.2494 17.6 18.5707 16.9047 17.3329 15.6669C16.0952 14.4292 15.3998 12.7505 15.3998 11ZM11.1164 21.9912C11.0416 22.3491 11.0042 22.7187 11.0042 23.1V24.299L5.21604 25.85C4.93424 25.9253 4.69389 26.1095 4.54784 26.362C4.4018 26.6145 4.36201 26.9146 4.43724 27.1964L5.86064 32.5094C6.27825 34.0654 7.25057 35.4149 8.59435 36.3036C9.93812 37.1923 11.5605 37.5588 13.1558 37.334C13.6618 38.016 14.2448 38.6408 14.8916 39.1886L14.5154 39.2986C13.3991 39.5981 12.2347 39.6747 11.0887 39.5241C9.94279 39.3734 8.83773 38.9986 7.83669 38.4208C6.83564 37.8431 5.95821 37.0738 5.25451 36.1569C4.55081 35.24 4.03462 34.1934 3.73544 33.077L2.31204 27.764C2.19993 27.3454 2.17137 26.9088 2.228 26.4791C2.28464 26.0495 2.42535 25.6352 2.6421 25.2599C2.85885 24.8846 3.1474 24.5557 3.49127 24.2919C3.83514 24.0282 4.2276 23.8347 4.64624 23.7226L11.1164 21.9912ZM32.9998 14.3C32.9998 13.4248 33.3475 12.5854 33.9664 11.9666C34.5853 11.3477 35.4246 11 36.2998 11C37.175 11 38.0144 11.3477 38.6333 11.9666C39.2522 12.5854 39.5998 13.4248 39.5998 14.3C39.5998 15.1752 39.2522 16.0146 38.6333 16.6335C38.0144 17.2523 37.175 17.6 36.2998 17.6C35.4246 17.6 34.5853 17.2523 33.9664 16.6335C33.3475 16.0146 32.9998 15.1752 32.9998 14.3ZM36.2998 8.80002C34.8411 8.80002 33.4422 9.37949 32.4107 10.4109C31.3793 11.4424 30.7998 12.8413 30.7998 14.3C30.7998 15.7587 31.3793 17.1577 32.4107 18.1891C33.4422 19.2206 34.8411 19.8 36.2998 19.8C37.7585 19.8 39.1575 19.2206 40.1889 18.1891C41.2204 17.1577 41.7998 15.7587 41.7998 14.3C41.7998 12.8413 41.2204 11.4424 40.1889 10.4109C39.1575 9.37949 37.7585 8.80002 36.2998 8.80002ZM7.69984 11C6.82462 11 5.98525 11.3477 5.36638 11.9666C4.74751 12.5854 4.39984 13.4248 4.39984 14.3C4.39984 15.1752 4.74751 16.0146 5.36638 16.6335C5.98525 17.2523 6.82462 17.6 7.69984 17.6C8.57505 17.6 9.41442 17.2523 10.0333 16.6335C10.6522 16.0146 10.9998 15.1752 10.9998 14.3C10.9998 13.4248 10.6522 12.5854 10.0333 11.9666C9.41442 11.3477 8.57505 11 7.69984 11ZM2.19984 14.3C2.19984 12.8413 2.7793 11.4424 3.81075 10.4109C4.8422 9.37949 6.24115 8.80002 7.69984 8.80002C9.15853 8.80002 10.5575 9.37949 11.5889 10.4109C12.6204 11.4424 13.1998 12.8413 13.1998 14.3C13.1998 15.7587 12.6204 17.1577 11.5889 18.1891C10.5575 19.2206 9.15853 19.8 7.69984 19.8C6.24115 19.8 4.8422 19.2206 3.81075 18.1891C2.7793 17.1577 2.19984 15.7587 2.19984 14.3ZM16.4998 19.8C15.6246 19.8 14.7853 20.1477 14.1664 20.7666C13.5475 21.3854 13.1998 22.2248 13.1998 23.1V30.8C13.1999 32.002 13.4462 33.1911 13.9235 34.2942C14.4008 35.3973 15.099 36.3909 15.975 37.2138C16.8511 38.0367 17.8864 38.6714 19.0172 39.0788C20.148 39.4861 21.3503 39.6575 22.5498 39.5824C21.9806 38.8909 21.4899 38.1383 21.0868 37.3384C19.5096 37.1181 18.0651 36.3349 17.02 35.1333C15.9748 33.9316 15.3994 32.3926 15.3998 30.8V23.1C15.3998 22.8083 15.5157 22.5285 15.722 22.3222C15.9283 22.1159 16.2081 22 16.4998 22H24.9412C26.1641 21.1393 27.5358 20.5127 28.987 20.152C28.5257 19.9199 28.0163 19.7994 27.4998 19.8H16.4998ZM41.7998 31.9C41.7998 34.5257 40.7568 37.0438 38.9002 38.9004C37.0436 40.757 34.5255 41.8 31.8998 41.8C29.2742 41.8 26.7561 40.757 24.8995 38.9004C23.0429 37.0438 21.9998 34.5257 21.9998 31.9C21.9998 29.2744 23.0429 26.7563 24.8995 24.8997C26.7561 23.0431 29.2742 22 31.8998 22C34.5255 22 37.0436 23.0431 38.9002 24.8997C40.7568 26.7563 41.7998 29.2744 41.7998 31.9ZM32.9998 27.5C32.9998 27.2083 32.8839 26.9285 32.6777 26.7222C32.4714 26.5159 32.1916 26.4 31.8998 26.4C31.6081 26.4 31.3283 26.5159 31.122 26.7222C30.9157 26.9285 30.7998 27.2083 30.7998 27.5V30.8H27.4998C27.2081 30.8 26.9283 30.9159 26.722 31.1222C26.5157 31.3285 26.3998 31.6083 26.3998 31.9C26.3998 32.1918 26.5157 32.4716 26.722 32.6778C26.9283 32.8841 27.2081 33 27.4998 33H30.7998V36.3C30.7998 36.5918 30.9157 36.8716 31.122 37.0778C31.3283 37.2841 31.6081 37.4 31.8998 37.4C32.1916 37.4 32.4714 37.2841 32.6777 37.0778C32.8839 36.8716 32.9998 36.5918 32.9998 36.3V33H36.2998C36.5916 33 36.8714 32.8841 37.0777 32.6778C37.2839 32.4716 37.3998 32.1918 37.3998 31.9C37.3998 31.6083 37.2839 31.3285 37.0777 31.1222C36.8714 30.9159 36.5916 30.8 36.2998 30.8H32.9998V27.5Z" fill="url(#paint0_linear_70_1072)"/>
<defs>
<linearGradient id="paint0_linear_70_1072" x1="21.9998" y1="4.40002" x2="21.9998" y2="41.8" gradientUnits="userSpaceOnUse">
<stop stop-color="white"/>
<stop offset="1" stop-color="#999999"/>
</linearGradient>
</defs>
</svg>
