<svg width="39" height="39" viewBox="0 0 39 39" fill="none" xmlns="http://www.w3.org/2000/svg">
<path d="M19.5 38.25C9.14438 38.25 0.75 29.8556 0.75 19.5C0.75 9.14438 9.14438 0.75 19.5 0.75C29.8556 0.75 38.25 9.14438 38.25 19.5C38.25 29.8556 29.8556 38.25 19.5 38.25ZM19.5 34.5C23.4782 34.5 27.2936 32.9196 30.1066 30.1066C32.9196 27.2936 34.5 23.4782 34.5 19.5C34.5 15.5218 32.9196 11.7064 30.1066 8.8934C27.2936 6.08035 23.4782 4.5 19.5 4.5C15.5218 4.5 11.7064 6.08035 8.8934 8.8934C6.08035 11.7064 4.5 15.5218 4.5 19.5C4.5 23.4782 6.08035 27.2936 8.8934 30.1066C11.7064 32.9196 15.5218 34.5 19.5 34.5ZM10.125 18.5625L27 12L20.4375 28.8788L17.625 21.375L10.125 18.5625Z" fill="url(#paint0_linear_67_1062)"/>
<defs>
<linearGradient id="paint0_linear_67_1062" x1="19.5" y1="0.75" x2="19.5" y2="38.25" gradientUnits="userSpaceOnUse">
<stop stop-color="white"/>
<stop offset="1" stop-color="#666666"/>
</linearGradient>
</defs>
</svg>
