<svg xmlns="http://www.w3.org/2000/svg" xmlns:xlink="http://www.w3.org/1999/xlink" width="500" zoomAndPan="magnify" viewBox="0 0 375 374.999991" height="500" preserveAspectRatio="xMidYMid meet" version="1.0"><defs><clipPath id="683bad04ab"><path d="M 34.398438 55 L 340 55 L 340 319.75 L 34.398438 319.75 Z M 34.398438 55 " clip-rule="nonzero"/></clipPath><clipPath id="0bb57514d8"><path d="M 39 63 L 331 63 L 331 319.75 L 39 319.75 Z M 39 63 " clip-rule="nonzero"/></clipPath><clipPath id="5308f743f3"><path d="M 43 71 L 321 71 L 321 319.75 L 43 319.75 Z M 43 71 " clip-rule="nonzero"/></clipPath><clipPath id="44b7609b2e"><path d="M 49 79 L 312 79 L 312 319.75 L 49 319.75 Z M 49 79 " clip-rule="nonzero"/></clipPath></defs><g clip-path="url(#683bad04ab)"><path stroke-linecap="round" transform="matrix(0.226002, 0, 0, 0.225939, 160.261444, 173.910781)" fill="none" stroke-linejoin="round" d="M -552.209737 640.466339 L 120.004994 -523.840618 L 792.202441 640.466339 Z M -552.209737 640.466339 " stroke="#030303" stroke-width="5" stroke-opacity="1" stroke-miterlimit="4"/><path stroke-linecap="round" transform="matrix(0.226002, 0, 0, 0.225939, 160.261444, 173.910781)" fill="none" stroke-linejoin="round" d="M -552.209737 640.466339 L 120.004994 -523.840618 L 792.202441 640.466339 Z M -552.209737 640.466339 " stroke="#030303" stroke-width="5" stroke-opacity="1" stroke-miterlimit="4"/></g><g clip-path="url(#0bb57514d8)"><path stroke-linecap="round" transform="matrix(0.215699, 0.00676918, -0.00677106, 0.215639, 163.205559, 175.695092)" fill="none" stroke-linejoin="round" d="M -552.210989 640.466796 L 120.001702 -523.842006 L 792.203232 640.45323 Z M -552.210989 640.466796 " stroke="#030303" stroke-width="5" stroke-opacity="1" stroke-miterlimit="4"/></g><g clip-path="url(#5308f743f3)"><path stroke-linecap="round" transform="matrix(0.20515, 0.0129034, -0.0129069, 0.205093, 166.020872, 177.622942)" fill="none" stroke-linejoin="round" d="M -552.209286 640.460742 L 119.991867 -523.844791 L 792.214824 640.461124 Z M -552.209286 640.460742 " stroke="#030303" stroke-width="5" stroke-opacity="1" stroke-miterlimit="4"/></g><g clip-path="url(#44b7609b2e)"><path stroke-linecap="round" transform="matrix(0.194381, 0.0183693, -0.0183744, 0.194327, 168.693113, 179.683889)" fill="none" stroke-linejoin="round" d="M -552.208873 640.465667 L 120.003035 -523.830867 L 792.201796 640.462617 Z M -552.208873 640.465667 " stroke="#030303" stroke-width="5" stroke-opacity="1" stroke-miterlimit="4"/></g><path stroke-linecap="round" transform="matrix(0.183423, 0.0231653, -0.0231717, 0.183372, 171.218314, 181.873085)" fill="none" stroke-linejoin="round" d="M -552.209141 640.459743 L 119.998014 -523.848152 L 792.211156 640.46334 Z M -552.209141 640.459743 " stroke="#030303" stroke-width="5" stroke-opacity="1" stroke-miterlimit="4"/><path stroke-linecap="round" transform="matrix(0.172303, 0.0272825, -0.0272901, 0.172255, 173.59262, 184.185516)" fill="none" stroke-linejoin="round" d="M -552.200161 640.4527 L 120.011046 -523.834134 L 792.201763 640.458399 Z M -552.200161 640.4527 " stroke="#030303" stroke-width="5" stroke-opacity="1" stroke-miterlimit="4"/><path stroke-linecap="round" transform="matrix(0.161042, 0.0307119, -0.0307205, 0.160998, 175.809353, 186.614138)" fill="none" stroke-linejoin="round" d="M -552.222328 640.452309 L 119.995133 -523.84922 L 792.219718 640.468131 Z M -552.222328 640.452309 " stroke="#030303" stroke-width="5" stroke-opacity="1" stroke-miterlimit="4"/><path stroke-linecap="round" transform="matrix(0.149674, 0.0334441, -0.0334534, 0.149633, 177.862843, 189.153415)" fill="none" stroke-linejoin="round" d="M -552.212382 640.464516 L 119.995172 -523.851758 L 792.214527 640.449704 Z M -552.212382 640.464516 " stroke="#030303" stroke-width="5" stroke-opacity="1" stroke-miterlimit="4"/><path stroke-linecap="round" transform="matrix(0.138225, 0.0354804, -0.0354903, 0.138187, 179.751818, 191.799275)" fill="none" stroke-linejoin="round" d="M -552.213714 640.468347 L 119.995337 -523.846435 L 792.196557 640.461128 Z M -552.213714 640.468347 " stroke="#030303" stroke-width="5" stroke-opacity="1" stroke-miterlimit="4"/><path stroke-linecap="round" transform="matrix(0.12672, 0.0368172, -0.0368274, 0.126684, 181.473773, 194.547774)" fill="none" stroke-linejoin="round" d="M -552.222802 640.450747 L 120.002028 -523.855977 L 792.222404 640.46102 Z M -552.222802 640.450747 " stroke="#030303" stroke-width="5" stroke-opacity="1" stroke-miterlimit="4"/><path stroke-linecap="round" transform="matrix(0.115184, 0.0374173, -0.0374277, 0.115152, 183.005119, 197.380153)" fill="none" stroke-linejoin="round" d="M -552.198571 640.462009 L 120.006377 -523.827318 L 792.22106 640.462848 Z M -552.198571 640.462009 " stroke="#030303" stroke-width="5" stroke-opacity="1" stroke-miterlimit="4"/><path stroke-linecap="round" transform="matrix(0.103641, 0.0373027, -0.0373131, 0.103612, 184.360144, 200.305182)" fill="none" stroke-linejoin="round" d="M -552.211625 640.466374 L 120.000728 -523.852865 L 792.190209 640.452472 Z M -552.211625 640.466374 " stroke="#030303" stroke-width="5" stroke-opacity="1" stroke-miterlimit="4"/><path stroke-linecap="round" transform="matrix(0.0921174, 0.0364617, -0.0364718, 0.0920917, 185.53048, 203.31195)" fill="none" stroke-linejoin="round" d="M -552.193544 640.471345 L 120.010788 -523.851894 L 792.21884 640.470965 Z M -552.193544 640.471345 " stroke="#030303" stroke-width="5" stroke-opacity="1" stroke-miterlimit="4"/><path stroke-linecap="round" transform="matrix(0.0806307, 0.0348827, -0.0348925, 0.0806083, 186.511588, 206.400822)" fill="none" stroke-linejoin="round" d="M -552.191286 640.464396 L 119.987961 -523.853649 L 792.18449 640.452168 Z M -552.191286 640.464396 " stroke="#030303" stroke-width="5" stroke-opacity="1" stroke-miterlimit="4"/><path stroke-linecap="round" transform="matrix(0.0691983, 0.0325532, -0.0325622, 0.069179, 187.295807, 209.565939)" fill="none" stroke-linejoin="round" d="M -552.201696 640.432678 L 119.995489 -523.8263 L 792.217191 640.440015 Z M -552.201696 640.432678 " stroke="#030303" stroke-width="5" stroke-opacity="1" stroke-miterlimit="4"/><path stroke-linecap="round" transform="matrix(0.0578272, 0.0294562, -0.0294644, 0.0578111, 187.879665, 212.804415)" fill="none" stroke-linejoin="round" d="M -552.247184 640.451348 L 119.999618 -523.851897 L 792.20093 640.437157 Z M -552.247184 640.451348 " stroke="#030303" stroke-width="5" stroke-opacity="1" stroke-miterlimit="4"/><path stroke-linecap="round" transform="matrix(0.0465272, 0.0255714, -0.0255785, 0.0465143, 188.253727, 216.122256)" fill="none" stroke-linejoin="round" d="M -552.188182 640.469331 L 119.967009 -523.834405 L 792.211726 640.484069 Z M -552.188182 640.469331 " stroke="#030303" stroke-width="5" stroke-opacity="1" stroke-miterlimit="4"/><path stroke-linecap="round" transform="matrix(0.0352744, 0.0208564, -0.0208622, 0.0352646, 188.412268, 219.527885)" fill="none" stroke-linejoin="round" d="M -552.22785 640.508915 L 120.023065 -523.827156 L 792.228617 640.466035 Z M -552.22785 640.508915 " stroke="#030303" stroke-width="5" stroke-opacity="1" stroke-miterlimit="4"/><path stroke-linecap="round" transform="matrix(0.0240218, 0.0152416, -0.0152459, 0.0240151, 188.3461, 223.038355)" fill="none" stroke-linejoin="round" d="M -552.191223 640.507219 L 120.025805 -523.782349 L 792.220246 640.393876 Z M -552.191223 640.507219 " stroke="#030303" stroke-width="5" stroke-opacity="1" stroke-miterlimit="4"/><path stroke-linecap="round" transform="matrix(0.0126109, 0.00856761, -0.00857, 0.0126074, 188.030325, 226.71952)" fill="none" stroke-linejoin="round" d="M -552.203832 640.421089 L 119.951051 -523.714706 L 792.188261 640.524359 Z M -552.203832 640.421089 " stroke="#030303" stroke-width="5" stroke-opacity="1" stroke-miterlimit="4"/></svg>